<?xml version="1.0" encoding="utf-8"?>
<!-- Generator: Adobe Illustrator 15.0.2, SVG Export Plug-In . SVG Version: 6.00 Build 0)  -->
<!DOCTYPE svg PUBLIC "-//W3C//DTD SVG 1.1//EN" "http://www.w3.org/Graphics/SVG/1.1/DTD/svg11.dtd">
<svg version="1.1" id="레이어_1" xmlns="http://www.w3.org/2000/svg" xmlns:xlink="http://www.w3.org/1999/xlink" x="0px"
	 y="0px" width="700px" height="700px" viewBox="0 0 700 700" enable-background="new 0 0 700 700" xml:space="preserve">
<g>
	<circle fill="#DCD2CC" cx="350.618" cy="350.093" r="329.251"/>
	<g>
		<circle fill="#648E33" cx="350.618" cy="350.093" r="304.033"/>
		<g>
			<g>
				<path fill="#C5B8B2" d="M246.106,372.094c-6.943,0-68.651-0.861-98.384-30.597c-29.735-29.736-30.594-91.437-30.594-98.384
					c0-7.366,5.97-13.342,13.343-13.342h62.264c7.369,0,13.344,5.976,13.344,13.342c0,7.37-5.975,13.342-13.344,13.342h-48.262
					c1.751,20.27,7.428,51.48,22.116,66.178c18.606,18.601,63.714,22.751,79.529,22.775c7.361,0.014,13.328,5.985,13.324,13.352
					C259.434,366.122,253.471,372.094,246.106,372.094z"/>
				<path fill="#C5B8B2" d="M455.132,372.094c6.939,0,68.65-0.861,98.384-30.597c29.732-29.736,30.59-91.437,30.59-98.384
					c0-7.366-5.97-13.342-13.341-13.342H508.5c-7.37,0-13.338,5.976-13.338,13.342c0,7.37,5.968,13.342,13.338,13.342h48.263
					c-1.751,20.27-7.427,51.48-22.118,66.178c-18.604,18.601-63.714,22.751-79.523,22.775c-7.364,0.014-13.332,5.985-13.327,13.352
					C441.805,366.122,447.766,372.094,455.132,372.094z"/>
				<path fill="#C5B8B2" d="M450.687,567.779c0,14.74-43.81,26.684-97.847,26.684c-54.033,0-97.84-11.943-97.84-26.684
					c0-14.735,43.807-26.689,97.84-26.689C406.877,541.09,450.687,553.044,450.687,567.779z"/>
				<path fill="#C5B8B2" d="M379.526,464.597c8.633-36.237-8.895-74.718-8.895-74.718H352.84h-17.79c0,0-17.521,38.48-8.892,74.718
					c8.892,37.358-8.895,84.062-44.474,102.739l71.155,9.337l71.157-9.337C388.421,548.658,370.632,501.955,379.526,464.597z"/>
				<path fill="#EEE5E0" d="M432.591,552.422c0.137,0.604,0.308,1.195,0.308,1.794c0,14.743-39.831,26.69-88.949,26.69
					c-34.57,0-64.459-5.924-79.184-14.563c5.794,11.862,42.969,21.029,88.075,21.029c49.124,0,88.949-10.861,88.949-24.254
					C441.789,559.279,438.425,555.65,432.591,552.422z"/>
				<path fill="#DCD2CC" d="M174.947,188.267c0,0,23.715,292.547,177.893,292.547c138.369,0,177.9-292.547,177.9-292.547H174.947z"
					/>
				<g>
					<path fill="#EEE5E0" d="M491.65,289.569c15.387-52.04,21.298-95.737,21.298-95.737h-59.786
						c-1.89,19.895-7.04,63.264-19.076,109.373C455.746,299.333,475.313,294.67,491.65,289.569z"/>
					<path fill="#EEE5E0" d="M422.582,341.14c-19.055,54.633-49.157,105.178-96.424,117.038c7.685,1.846,15.759,2.859,24.296,2.859
						c62.417,0,102.789-65.176,127.691-131.149C461.644,334.176,442.88,338.017,422.582,341.14z"/>
				</g>
				<path fill="#C5B8B2" d="M530.74,188.267c0,26.196-79.651,47.441-177.9,47.441c-98.245,0-177.893-21.245-177.893-47.441
					c0-26.197,79.647-47.445,177.893-47.445C451.089,140.822,530.74,162.07,530.74,188.267z"/>
				<path fill="#AD9D98" d="M512.948,185.3c0,19.646-71.684,35.583-160.108,35.583c-88.421,0-160.104-15.937-160.104-35.583
					c0-19.642,71.683-35.582,160.104-35.582C441.265,149.718,512.948,165.658,512.948,185.3z"/>
				<g>
					<polygon fill="#C5B8B2" points="297.304,286.517 304.814,302.565 322.391,304.748 309.449,316.843 312.807,334.237 
						297.304,325.667 281.8,334.237 285.156,316.843 272.217,304.748 289.794,302.565 					"/>
					<polygon fill="#C5B8B2" points="349.762,286.517 357.272,302.565 374.85,304.748 361.907,316.843 365.265,334.237 
						349.762,325.667 334.259,334.237 337.614,316.843 324.675,304.748 342.252,302.565 					"/>
					<polygon fill="#C5B8B2" points="402.219,286.517 409.73,302.565 427.308,304.748 414.365,316.843 417.723,334.237 
						402.219,325.667 386.717,334.237 390.072,316.843 377.133,304.748 394.711,302.565 					"/>
				</g>
			</g>
		</g>
	</g>
</g>
</svg>
