<?xml version="1.0" encoding="utf-8"?>
<!-- Generator: Adobe Illustrator 15.0.2, SVG Export Plug-In . SVG Version: 6.00 Build 0)  -->
<!DOCTYPE svg PUBLIC "-//W3C//DTD SVG 1.1//EN" "http://www.w3.org/Graphics/SVG/1.1/DTD/svg11.dtd">
<svg version="1.1" id="레이어_1" xmlns="http://www.w3.org/2000/svg" xmlns:xlink="http://www.w3.org/1999/xlink" x="0px"
	 y="0px" width="700px" height="700px" viewBox="0 0 700 700" enable-background="new 0 0 700 700" xml:space="preserve">
<g>
	<circle fill="#6DC6D6" cx="350.852" cy="350.093" r="329.251"/>
	<g>
		<circle fill="#2B556D" cx="350.852" cy="350.093" r="304.032"/>
		<g>
			<g>
				<path fill="#6DC6D6" d="M246.341,372.094c-6.942,0-68.651-0.861-98.385-30.597c-29.733-29.736-30.593-91.437-30.593-98.384
					c0-7.366,5.971-13.342,13.343-13.342h62.263c7.37,0,13.345,5.976,13.345,13.342c0,7.37-5.975,13.342-13.345,13.342h-48.262
					c1.752,20.27,7.429,51.48,22.116,66.178c18.606,18.601,63.714,22.751,79.529,22.775c7.361,0.014,13.327,5.985,13.324,13.352
					C259.668,366.122,253.706,372.094,246.341,372.094z"/>
				<path fill="#6DC6D6" d="M455.367,372.094c6.939,0,68.65-0.861,98.383-30.597c29.732-29.736,30.592-91.437,30.592-98.384
					c0-7.366-5.973-13.342-13.34-13.342h-62.266c-7.369,0-13.34,5.976-13.34,13.342c0,7.37,5.971,13.342,13.34,13.342h48.26
					c-1.75,20.27-7.424,51.48-22.115,66.178c-18.605,18.601-63.715,22.751-79.525,22.775c-7.363,0.014-13.332,5.985-13.326,13.352
					C442.039,366.122,448,372.094,455.367,372.094z"/>
				<path fill="#6DC6D6" d="M450.922,567.779c0,14.74-43.811,26.684-97.846,26.684c-54.035,0-97.843-11.943-97.843-26.684
					c0-14.735,43.809-26.689,97.843-26.689C407.111,541.09,450.922,553.044,450.922,567.779z"/>
				<path fill="#6DC6D6" d="M379.762,464.597c8.633-36.237-8.896-74.718-8.896-74.718h-17.789h-17.791
					c0,0-17.522,38.48-8.893,74.718c8.893,37.358-8.895,84.062-44.474,102.739l71.157,9.337l71.156-9.337
					C388.656,548.658,370.865,501.955,379.762,464.597z"/>
				<path fill="#A3D4E1" d="M432.826,552.422c0.137,0.604,0.307,1.195,0.307,1.794c0,14.743-39.83,26.69-88.949,26.69
					c-34.571,0-64.459-5.924-79.185-14.563c5.795,11.862,42.969,21.029,88.077,21.029c49.121,0,88.947-10.861,88.947-24.254
					C442.023,559.279,438.66,555.65,432.826,552.422z"/>
				<path fill="#A3D4E1" d="M175.182,188.267c0,0,23.716,292.547,177.894,292.547c138.367,0,177.898-292.547,177.898-292.547
					H175.182z"/>
				<g>
					<path fill="#C4E6F0" d="M491.887,289.569c15.385-52.04,21.297-95.737,21.297-95.737h-59.787
						c-1.891,19.895-7.041,63.264-19.076,109.373C455.98,299.333,475.549,294.67,491.887,289.569z"/>
					<path fill="#C4E6F0" d="M422.816,341.14c-19.053,54.633-49.156,105.178-96.423,117.038c7.686,1.846,15.759,2.859,24.297,2.859
						c62.417,0,102.789-65.176,127.691-131.149C461.877,334.176,443.115,338.017,422.816,341.14z"/>
				</g>
				<path fill="#6DC6D6" d="M530.975,188.267c0,26.196-79.65,47.441-177.898,47.441c-98.247,0-177.894-21.245-177.894-47.441
					c0-26.197,79.647-47.445,177.894-47.445C451.324,140.822,530.975,162.07,530.975,188.267z"/>
				<path fill="#4ABAC6" d="M513.184,185.3c0,19.646-71.684,35.583-160.107,35.583c-88.423,0-160.107-15.937-160.107-35.583
					c0-19.642,71.684-35.582,160.107-35.582C441.5,149.718,513.184,165.658,513.184,185.3z"/>
				<g>
					<g>
						<polygon fill="#4ABAC6" points="318.815,278.929 328.382,299.373 350.776,302.154 334.288,317.562 338.565,339.722 
							318.815,328.805 299.064,339.722 303.339,317.562 286.856,302.154 309.249,299.373 						"/>
					</g>
					<g>
						<polygon fill="#4ABAC6" points="390.365,278.929 399.934,299.373 422.326,302.154 405.838,317.562 410.117,339.722 
							390.365,328.805 370.615,339.722 374.891,317.562 358.406,302.154 380.801,299.373 						"/>
					</g>
				</g>
			</g>
		</g>
	</g>
</g>
</svg>
