<?xml version="1.0" encoding="utf-8"?>
<!-- Generator: Adobe Illustrator 15.0.2, SVG Export Plug-In . SVG Version: 6.00 Build 0)  -->
<!DOCTYPE svg PUBLIC "-//W3C//DTD SVG 1.1//EN" "http://www.w3.org/Graphics/SVG/1.1/DTD/svg11.dtd">
<svg version="1.1" id="레이어_1" xmlns="http://www.w3.org/2000/svg" xmlns:xlink="http://www.w3.org/1999/xlink" x="0px"
	 y="0px" width="700px" height="700px" viewBox="0 0 700 700" enable-background="new 0 0 700 700" xml:space="preserve">
<g>
	<g>
		<circle fill="#A3D4E1" cx="350.852" cy="349.981" r="329.251"/>
		<circle fill="#648E33" cx="350.852" cy="347.499" r="304.032"/>
		<g>
			<polygon fill="#A3D4E1" points="548.709,382.363 199.248,382.363 199.248,182.675 548.709,182.675 448.861,282.518 			"/>
			<polygon fill="#A3D4E1" points="548.709,382.363 199.248,382.363 199.248,182.675 548.709,182.675 448.861,282.518 			"/>
			<polygon fill="#C4E6F0" points="482.484,248.898 548.709,182.675 216.135,182.675 216.135,248.898 			"/>
			<polygon fill="#C4E6F0" points="216.135,316.142 216.135,382.363 548.709,382.363 482.486,316.142 			"/>
			<rect x="199.248" y="182.675" fill="#A3D4E1" width="56.336" height="199.688"/>
			<path fill="#2B556D" d="M174.29,595.029c15.604,11.15,32.311,20.854,49.918,28.934V182.675H174.29V595.029z"/>
			<path fill="#234C5E" d="M174.29,595.029c5.87,4.194,11.896,8.183,18.067,11.96V182.675H174.29V595.029z"/>
		</g>
	</g>
	<g>
		<g>
			<g>
				<g>
					<polygon fill="#FFFFFF" points="292.303,233.716 306.131,263.265 338.498,267.284 314.666,289.554 320.849,321.583 
						292.303,305.804 263.755,321.583 269.934,289.554 246.11,267.284 278.475,263.265 					"/>
					<polygon fill="#FFFFFF" points="395.721,233.716 409.551,263.265 441.916,267.284 418.084,289.554 424.268,321.583 
						395.721,305.804 367.174,321.583 373.352,289.554 349.528,267.284 381.895,263.265 					"/>
				</g>
			</g>
		</g>
	</g>
</g>
</svg>
