<?xml version="1.0" encoding="utf-8"?>
<!-- Generator: Adobe Illustrator 15.0.2, SVG Export Plug-In . SVG Version: 6.00 Build 0)  -->
<!DOCTYPE svg PUBLIC "-//W3C//DTD SVG 1.1//EN" "http://www.w3.org/Graphics/SVG/1.1/DTD/svg11.dtd">
<svg version="1.1" id="레이어_1" xmlns="http://www.w3.org/2000/svg" xmlns:xlink="http://www.w3.org/1999/xlink" x="0px"
	 y="0px" width="700px" height="700px" viewBox="0 0 700 700" enable-background="new 0 0 700 700" xml:space="preserve">
<g>
	<g>
		<circle fill="#F09320" cx="350.088" cy="349.981" r="329.251"/>
		<circle fill="#EB601E" cx="350.087" cy="347.499" r="304.033"/>
		<g>
			<polygon fill="#F09320" points="547.943,382.363 198.482,382.363 198.482,182.675 547.943,182.675 448.098,282.518 			"/>
			<polygon fill="#F09320" points="547.943,382.363 198.482,382.363 198.482,182.675 547.943,182.675 448.098,282.518 			"/>
			<polygon fill="#F2BB20" points="481.719,248.898 547.943,182.675 215.371,182.675 215.371,248.898 			"/>
			<polygon fill="#F2BB20" points="215.371,316.142 215.371,382.363 547.943,382.363 481.723,316.142 			"/>
			<rect x="198.482" y="182.675" fill="#F09320" width="56.336" height="199.688"/>
			<path fill="#23A7B5" d="M173.524,595.029c15.604,11.15,32.311,20.854,49.918,28.934V182.675h-49.918V595.029z"/>
			<path fill="#1D8FAB" d="M173.524,595.029c5.87,4.194,11.897,8.183,18.068,11.96V182.675h-18.068V595.029z"/>
		</g>
	</g>
	<g>
		<g>
			<g>
				<polygon fill="#FFFFFF" points="360.576,203.394 383.949,253.337 438.65,260.13 398.373,297.772 408.823,351.905 
					360.576,325.235 312.328,351.905 322.771,297.772 282.504,260.13 337.205,253.337 				"/>
			</g>
		</g>
	</g>
</g>
</svg>
