<?xml version="1.0" encoding="utf-8"?>
<!-- Generator: Adobe Illustrator 15.0.2, SVG Export Plug-In . SVG Version: 6.00 Build 0)  -->
<!DOCTYPE svg PUBLIC "-//W3C//DTD SVG 1.1//EN" "http://www.w3.org/Graphics/SVG/1.1/DTD/svg11.dtd">
<svg version="1.1" id="레이어_1" xmlns="http://www.w3.org/2000/svg" xmlns:xlink="http://www.w3.org/1999/xlink" x="0px"
	 y="0px" width="700px" height="700px" viewBox="0 0 700 700" enable-background="new 0 0 700 700" xml:space="preserve">
<path fill="#DCD2CC" d="M350.619,20.805c181.838,0,329.25,147.412,329.25,329.251c0,181.839-147.412,329.25-329.25,329.25
	c-181.842,0-329.252-147.411-329.252-329.25C21.367,168.217,168.777,20.805,350.619,20.805"/>
<g>
	<circle fill="#23A7B5" cx="350.618" cy="350.057" r="304.032"/>
	<g>
		<path fill="#4F6A30" d="M210.752,80.041l67.46,129.235H423.85L339.754,46.218C293.356,47.848,249.604,59.875,210.752,80.041z"/>
		<g>
			<path fill="#C5B8B2" d="M329.863,338.411c-1.228,0.048-2.442,0.126-3.688,0.126c-33.711,0-49.408-14.513-49.408-45.679
				l-10.519-52.885c0.652-27.082,24.023-44.511,59.927-44.511c1.246,0,2.461,0.077,3.688,0.124v-24.467
				c-1.233-0.03-2.442-0.13-3.688-0.13c-49.704,0-84.424,28.842-84.424,70.146l10.549,52.995
				c0.502,43.794,27.372,68.887,73.875,68.887c1.246,0,2.455-0.104,3.688-0.135V338.411z"/>
			<path fill="#C5B8B2" d="M371.363,338.411c1.234,0.048,2.447,0.126,3.686,0.126c33.711,0,49.41-14.513,49.41-45.679l10.529-52.885
				c-0.654-27.082-24.035-44.511-59.939-44.511c-1.238,0-2.451,0.077-3.686,0.124v-24.467c1.238-0.03,2.441-0.13,3.686-0.13
				c49.711,0,84.43,28.842,84.43,70.146l-10.545,52.995c-0.51,43.794-27.373,68.887-73.885,68.887c-1.244,0-2.447-0.104-3.686-0.135
				V338.411z"/>
		</g>
		<path fill="#597C34" d="M280.79,209.275h139.542l70.061-129.282c-38.76-20.102-82.396-32.105-128.668-33.768L280.79,209.275z"/>
		<path fill="#C5B8B2" d="M518.781,416.933c0,92.888-75.291,168.171-168.169,168.171c-92.87,0-168.157-75.283-168.157-168.171
			c0-92.867,75.287-168.154,168.157-168.154C443.49,248.778,518.781,324.066,518.781,416.933z"/>
		<path fill="#DCD2CC" d="M518.781,408.487c0,92.891-75.291,168.171-168.169,168.171c-92.87,0-168.157-75.28-168.157-168.171
			c0-92.866,75.287-168.153,168.157-168.153C443.49,240.334,518.781,315.622,518.781,408.487z"/>
		<path fill="#EEE5E0" d="M350.612,250.693c91.144,0,165.351,72.504,168.087,162.976c0.053-1.72,0.082-3.448,0.082-5.182
			c0-92.866-75.291-168.153-168.169-168.153c-92.87,0-168.157,75.287-168.157,168.153c0,1.733,0.029,3.462,0.081,5.182
			C185.273,323.197,259.474,250.693,350.612,250.693z"/>
		<path fill="#C5B8B2" d="M469.564,408.487c0,65.696-53.264,118.953-118.953,118.953c-65.688,0-118.938-53.257-118.938-118.953
			c0-65.683,53.25-118.935,118.938-118.935C416.301,289.553,469.564,342.805,469.564,408.487z"/>
		<path fill="#EEE5E0" d="M461.359,416.693c0,61.167-49.58,110.747-110.748,110.747c-61.158,0-110.733-49.58-110.733-110.747
			c0-61.16,49.575-110.739,110.733-110.739C411.779,305.954,461.359,355.533,461.359,416.693z"/>
		<path fill="#F7F7F5" d="M241.562,398.018c20.316,23.951,50.583,39.188,84.446,39.188c54.787,0,100.154-39.809,109.039-92.068
			c-20.307-23.947-50.57-39.183-84.435-39.183C295.833,305.954,250.46,345.769,241.562,398.018z"/>
		<path fill="#C5B8B2" d="M398.391,433.408c-1.049-6.959-5.957-17.823-19.102-27.229c9.393-8.506,12.428-17.99,13.32-23.923
			c1.836-12.192-3.422-26.776-12.049-33.783c-13.648-11.084-31.939-11.004-48.725-3.221c-11.912,5.523-20.31,14.542-20.647,14.902
			l14.005,12.945c0,0,22.536-18.09,39.083-7.261c13.027,8.524,0.484,27.626-14.331,33.781c-0.791,0.328-1.566,0.662-2.33,0.997
			l-0.136,13.891c0.806,0.352,3.773,1.352,4.605,1.697c15.568,6.469,24.416,24.112,10.725,33.07
			c-17.386,11.377-36.735-5.201-36.735-5.201l-14.715,13.601c0.354,0.38,9.179,9.857,21.695,15.659
			c17.638,8.177,38.802,8.484,52.877-3.459C395.703,461.588,400.318,446.219,398.391,433.408z"/>
	</g>
</g>
</svg>
