<?xml version="1.0" encoding="utf-8"?>
<!-- Generator: Adobe Illustrator 15.0.2, SVG Export Plug-In . SVG Version: 6.00 Build 0)  -->
<!DOCTYPE svg PUBLIC "-//W3C//DTD SVG 1.1//EN" "http://www.w3.org/Graphics/SVG/1.1/DTD/svg11.dtd">
<svg version="1.1" id="레이어_1" xmlns="http://www.w3.org/2000/svg" xmlns:xlink="http://www.w3.org/1999/xlink" x="0px"
	 y="0px" width="700px" height="700px" viewBox="0 0 700 700" enable-background="new 0 0 700 700" xml:space="preserve">
<g>
	<circle fill="#C4E6F0" cx="350.853" cy="350.057" r="329.251"/>
	<g>
		<circle fill="#648E33" cx="350.853" cy="350.057" r="304.032"/>
		<g>
			<path fill="#234C5E" d="M210.985,80.041l67.461,129.234h145.638L339.988,46.218C293.59,47.848,249.838,59.875,210.985,80.041z"/>
			<path fill="#6DC6D6" d="M330.097,338.411c-1.229,0.048-2.443,0.126-3.689,0.126c-33.709,0-49.408-14.513-49.408-45.679
				l-10.518-52.885c0.652-27.082,24.023-44.511,59.926-44.511c1.246,0,2.461,0.077,3.689,0.124v-24.467
				c-1.233-0.03-2.443-0.13-3.689-0.13c-49.704,0-84.422,28.842-84.422,70.146l10.548,52.995
				c0.503,43.794,27.372,68.887,73.874,68.887c1.246,0,2.456-0.104,3.689-0.135V338.411z"/>
			<path fill="#6DC6D6" d="M371.597,338.411c1.233,0.048,2.449,0.126,3.688,0.126c33.71,0,49.407-14.513,49.407-45.679l10.53-52.885
				c-0.652-27.082-24.033-44.511-59.938-44.511c-1.238,0-2.454,0.077-3.688,0.124v-24.467c1.238-0.03,2.441-0.13,3.688-0.13
				c49.71,0,84.428,28.842,84.428,70.146l-10.544,52.995c-0.512,43.794-27.373,68.887-73.884,68.887
				c-1.246,0-2.449-0.104-3.688-0.135V338.411z"/>
			<path fill="#2B556D" d="M281.11,209.275h139.601l69.922-129.28c-38.76-20.103-82.396-32.107-128.67-33.77L281.11,209.275z"/>
			<path fill="#4ABAC6" d="M519.018,416.933c0,92.888-75.294,168.171-168.173,168.171c-92.869,0-168.157-75.283-168.157-168.171
				c0-92.867,75.288-168.154,168.157-168.154C443.724,248.778,519.018,324.066,519.018,416.933z"/>
			<path fill="#A3D4E1" d="M519.018,408.487c0,92.891-75.294,168.171-168.173,168.171c-92.869,0-168.157-75.28-168.157-168.171
				c0-92.866,75.288-168.153,168.157-168.153C443.724,240.334,519.018,315.622,519.018,408.487z"/>
			<path fill="#6DC6D6" d="M469.798,408.487c0,65.696-53.264,118.953-118.953,118.953c-65.687,0-118.938-53.257-118.938-118.953
				c0-65.683,53.251-118.935,118.938-118.935C416.534,289.553,469.798,342.805,469.798,408.487z"/>
			<path fill="#C4E6F0" d="M461.593,416.693c0,61.167-49.58,110.747-110.748,110.747c-61.157,0-110.733-49.58-110.733-110.747
				c0-61.16,49.576-110.739,110.733-110.739C412.013,305.954,461.593,355.533,461.593,416.693z"/>
			<path fill="#DDEEF0" d="M241.797,398.018c20.315,23.951,50.581,39.188,84.444,39.188c54.788,0,100.153-39.809,109.04-92.068
				c-20.306-23.947-50.571-39.183-84.437-39.183C296.067,305.954,250.694,345.769,241.797,398.018z"/>
			<path fill="#4ABAC6" d="M369.014,428.763c25.763-11.124,32.19-29.556,33.628-39.414c2.037-13.964-3.8-30.668-13.378-38.692
				c-15.152-12.694-35.461-12.603-54.099-3.688c-13.226,6.327-22.549,16.653-22.924,17.068l15.549,14.825
				c0,0,25.021-20.718,43.393-8.316c14.464,9.763,0.539,31.641-15.911,38.693c-50.625,21.694-52.692,56.317-53.024,57.755
				l0.229,11.581l95.104,1.535l-2.44-26.033l-54.189,1.435C343.973,447.572,352.727,435.794,369.014,428.763z"/>
			<path fill="#C4E6F0" d="M350.845,250.693c91.146,0,165.354,72.504,168.09,162.976c0.052-1.719,0.082-3.448,0.082-5.182
				c0-92.866-75.294-168.153-168.172-168.153c-92.869,0-168.157,75.287-168.157,168.153c0,1.733,0.03,3.463,0.083,5.182
				C185.507,323.197,259.708,250.693,350.845,250.693z"/>
		</g>
	</g>
</g>
</svg>
