<?xml version="1.0" encoding="utf-8"?>
<!-- Generator: Adobe Illustrator 15.0.2, SVG Export Plug-In . SVG Version: 6.00 Build 0)  -->
<!DOCTYPE svg PUBLIC "-//W3C//DTD SVG 1.1//EN" "http://www.w3.org/Graphics/SVG/1.1/DTD/svg11.dtd">
<svg version="1.1" id="레이어_1" xmlns="http://www.w3.org/2000/svg" xmlns:xlink="http://www.w3.org/1999/xlink" x="0px"
	 y="0px" width="700px" height="700px" viewBox="0 0 700 700" enable-background="new 0 0 700 700" xml:space="preserve">
<g>
	<circle fill="#F2BB20" cx="350.087" cy="350.057" r="329.25"/>
	<g>
		<circle fill="#EB601E" cx="350.088" cy="350.057" r="304.033"/>
		<g>
			<path fill="#1D8FAB" d="M210.222,80.041l67.459,129.234h145.637L339.224,46.218C292.825,47.848,249.073,59.875,210.222,80.041z"
				/>
			<g>
				<path fill="#E88418" d="M329.332,338.411c-1.228,0.048-2.443,0.126-3.688,0.126c-33.711,0-49.408-14.513-49.408-45.679
					l-10.519-52.885c0.652-27.082,24.022-44.511,59.926-44.511c1.245,0,2.46,0.077,3.688,0.124v-24.467
					c-1.233-0.03-2.443-0.13-3.688-0.13c-49.705,0-84.423,28.842-84.423,70.146l10.548,52.995
					c0.502,43.794,27.373,68.887,73.875,68.887c1.245,0,2.455-0.104,3.688-0.135V338.411z"/>
				<path fill="#E88418" d="M370.83,338.411c1.235,0.048,2.45,0.126,3.688,0.126c33.712,0,49.409-14.513,49.409-45.679
					l10.529-52.885c-0.654-27.082-24.034-44.511-59.938-44.511c-1.238,0-2.453,0.077-3.688,0.124v-24.467
					c1.24-0.03,2.443-0.13,3.688-0.13c49.711,0,84.429,28.842,84.429,70.146l-10.546,52.995
					c-0.509,43.794-27.372,68.887-73.883,68.887c-1.245,0-2.448-0.104-3.688-0.135V338.411z"/>
			</g>
			<path fill="#23A7B5" d="M280.253,209.275h139.581l70.03-129.282c-38.762-20.102-82.397-32.105-128.672-33.768L280.253,209.275z"
				/>
			<path fill="#E88418" d="M518.252,416.933c0,92.888-75.293,168.171-168.17,168.171c-92.87,0-168.157-75.283-168.157-168.171
				c0-92.867,75.287-168.154,168.157-168.154C442.959,248.778,518.252,324.066,518.252,416.933z"/>
			<path fill="#F09320" d="M518.252,408.487c0,92.891-75.293,168.171-168.17,168.171c-92.87,0-168.157-75.28-168.157-168.171
				c0-92.866,75.287-168.153,168.157-168.153C442.959,240.334,518.252,315.622,518.252,408.487z"/>
			<path fill="#E88418" d="M469.033,408.487c0,65.696-53.263,118.953-118.952,118.953s-118.938-53.257-118.938-118.953
				c0-65.683,53.249-118.935,118.938-118.935S469.033,342.805,469.033,408.487z"/>
			<path fill="#F2BB20" d="M460.828,416.693c0,61.167-49.58,110.747-110.747,110.747c-61.159,0-110.735-49.58-110.735-110.747
				c0-61.16,49.576-110.739,110.735-110.739C411.248,305.954,460.828,355.533,460.828,416.693z"/>
			<path fill="#F6C650" d="M241.031,398.018c20.317,23.951,50.583,39.188,84.447,39.188c54.785,0,100.151-39.809,109.039-92.068
				c-20.307-23.947-50.572-39.183-84.436-39.183C295.302,305.954,249.93,345.769,241.031,398.018z"/>
			<g>
				<rect x="345.985" y="416.695" fill="#E88418" width="0" height="0"/>
				<rect x="345.985" y="416.695" fill="#E88418" width="0" height="0"/>
			</g>
			<g>
				<polygon fill="#E88418" points="376.23,482.333 335.209,482.333 343.416,342.875 368.025,342.875 				"/>
				<polygon fill="#E88418" points="310.601,383.895 327.011,383.895 368.025,342.875 343.416,342.875 				"/>
			</g>
			<path fill="#F2BB20" d="M350.082,250.693c91.145,0,165.35,72.504,168.088,162.976c0.051-1.719,0.082-3.448,0.082-5.182
				c0-92.866-75.293-168.153-168.17-168.153c-92.869,0-168.157,75.287-168.157,168.153c0,1.733,0.029,3.463,0.081,5.182
				C184.743,323.197,258.944,250.693,350.082,250.693z"/>
		</g>
	</g>
</g>
</svg>
