<?xml version="1.0" encoding="utf-8"?>
<!-- Generator: Adobe Illustrator 15.0.2, SVG Export Plug-In . SVG Version: 6.00 Build 0)  -->
<!DOCTYPE svg PUBLIC "-//W3C//DTD SVG 1.1//EN" "http://www.w3.org/Graphics/SVG/1.1/DTD/svg11.dtd">
<svg version="1.1" id="레이어_1" xmlns="http://www.w3.org/2000/svg" xmlns:xlink="http://www.w3.org/1999/xlink" x="0px"
	 y="0px" width="700px" height="700px" viewBox="0 0 700 700" enable-background="new 0 0 700 700" xml:space="preserve">
<g>
	<circle fill="#DCD2CC" cx="349.913" cy="349.943" r="329.251"/>
	<circle fill="#648E33" cx="349.913" cy="349.943" r="304.032"/>
	<g>
		<g>
			<g>
				<path fill="#EEE5E0" d="M302.371,426.783h-6.029c-2.889-1.51-5.02-4.987-5.434-9.178V252.894
					c0.414-4.191,2.545-7.669,5.434-9.18h6.029c4.695,0,8.502-5.007,8.502-11.185s-3.807-11.185-8.502-11.185H251.24
					c-4.695,0-8.502,5.007-8.502,11.185s3.807,11.185,8.502,11.185h6.338c2.791,1.46,4.875,4.754,5.387,8.753v165.564
					c-0.512,3.998-2.594,7.294-5.385,8.752h-6.34c-4.695,0-8.502,5.009-8.502,11.187c0,6.179,3.807,11.185,8.502,11.185h51.131
					c4.695,0,8.502-5.006,8.502-11.185C310.873,431.792,307.066,426.783,302.371,426.783z"/>
				<path fill="#EEE5E0" d="M375.477,426.783h-6.027c-2.891-1.51-5.021-4.987-5.436-9.178V252.894
					c0.414-4.191,2.545-7.669,5.436-9.18h6.027c4.695,0,8.502-5.007,8.502-11.185s-3.807-11.185-8.502-11.185h-51.129
					c-4.697,0-8.504,5.007-8.504,11.185s3.807,11.185,8.504,11.185h6.338c2.791,1.46,4.875,4.754,5.387,8.753v165.564
					c-0.512,3.998-2.596,7.294-5.387,8.752h-6.338c-4.697,0-8.504,5.009-8.504,11.187c0,6.179,3.807,11.185,8.504,11.185h51.129
					c4.695,0,8.502-5.006,8.502-11.185C383.979,431.792,380.172,426.783,375.477,426.783z"/>
				<path fill="#EEE5E0" d="M448.584,426.783h-6.029c-2.889-1.51-5.02-4.987-5.434-9.178V252.894
					c0.414-4.191,2.545-7.669,5.434-9.18h6.029c4.695,0,8.502-5.007,8.502-11.185s-3.807-11.185-8.502-11.185h-51.131
					c-4.695,0-8.502,5.007-8.502,11.185s3.807,11.185,8.502,11.185h6.34c2.791,1.46,4.873,4.754,5.385,8.753v165.564
					c-0.512,3.998-2.594,7.294-5.385,8.752h-6.34c-4.695,0-8.502,5.009-8.502,11.187c0,6.179,3.807,11.185,8.502,11.185h51.131
					c4.695,0,8.502-5.006,8.502-11.185C457.086,431.792,453.279,426.783,448.584,426.783z"/>
			</g>
		</g>
	</g>
	<g>
		<g>
			<g>
				<path fill="#EEE5E0" d="M212.721,481.324c39.102,16.528,39.773,55.758,39.773,55.758s-28.605,26.853-67.707,10.324
					c-39.104-16.529-56.836-62.97-56.836-62.97S173.617,464.794,212.721,481.324z"/>
				<path fill="#DCD2CC" d="M252.494,537.082c0,0-28.605,26.853-67.707,10.324c-39.104-16.529-56.836-62.97-56.836-62.97
					L252.494,537.082z"/>
			</g>
			<g>
				<path fill="#EEE5E0" d="M160.203,390.169c32.113,27.765,20.674,65.295,20.674,65.295s-35.482,16.741-67.596-11.023
					c-32.115-27.766-34.688-77.409-34.688-77.409S128.088,362.402,160.203,390.169z"/>
				<path fill="#DCD2CC" d="M180.877,455.464c0,0-35.482,16.741-67.596-11.023c-32.115-27.766-34.688-77.409-34.688-77.409
					L180.877,455.464z"/>
			</g>
			<g>
				<path fill="#EEE5E0" d="M168.039,296.783c18.344,38.285-7.143,68.116-7.143,68.116s-39.215,1.167-57.559-37.118
					s-0.861-84.821-0.861-84.821S149.697,258.497,168.039,296.783z"/>
				<path fill="#DCD2CC" d="M160.896,364.899c0,0-39.215,1.167-57.559-37.118s-0.861-84.821-0.861-84.821L160.896,364.899z"/>
			</g>
			<g>
				<path fill="#EEE5E0" d="M210.443,210.913c-0.189,42.452-36.133,58.183-36.133,58.183s-35.801-16.053-35.609-58.505
					c0.189-42.453,36.215-76.707,36.215-76.707S210.635,168.46,210.443,210.913z"/>
				<path fill="#DCD2CC" d="M174.311,269.096c0,0-35.801-16.053-35.609-58.505c0.189-42.453,36.215-76.707,36.215-76.707
					L174.311,269.096z"/>
			</g>
			<g>
				<path fill="#EEE5E0" d="M275.447,177.062c-16.553,21.103-40.58,15.014-40.58,15.014s-11.633-21.887,4.92-42.988
					c16.555-21.103,47.803-24.222,47.803-24.222S292.002,155.96,275.447,177.062z"/>
				<path fill="#DCD2CC" d="M234.867,192.075c0,0-11.633-21.887,4.92-42.988c16.555-21.103,47.803-24.222,47.803-24.222
					L234.867,192.075z"/>
			</g>
			<g>
				<path fill="#EEE5E0" d="M305.549,547.077c-80.594-26.138-139.025-103.521-139.025-194.93c0-71.796,36.051-134.936,90.57-171.394
					c-0.332-1.521-0.6-3.058-0.805-4.606C194.895,213.213,153.84,280.565,153.84,357.513c0,96.081,64.01,177.197,151.709,203.069
					V547.077z"/>
			</g>
		</g>
		<g>
			<g>
				<path fill="#EEE5E0" d="M487.104,481.324c-39.102,16.527-39.773,55.758-39.773,55.758s28.605,26.852,67.707,10.324
					c39.104-16.529,56.836-62.971,56.836-62.971S526.207,464.793,487.104,481.324z"/>
				<path fill="#DCD2CC" d="M447.33,537.082c0,0,28.605,26.852,67.707,10.324c39.104-16.529,56.836-62.971,56.836-62.971
					L447.33,537.082z"/>
			</g>
			<g>
				<path fill="#EEE5E0" d="M539.621,390.168c-32.113,27.766-20.674,65.295-20.674,65.295s35.482,16.742,67.596-11.023
					c32.115-27.766,34.688-77.408,34.688-77.408S571.736,362.402,539.621,390.168z"/>
				<path fill="#DCD2CC" d="M518.947,455.463c0,0,35.482,16.742,67.596-11.023c32.115-27.766,34.688-77.408,34.688-77.408
					L518.947,455.463z"/>
			</g>
			<g>
				<path fill="#EEE5E0" d="M531.785,296.783c-18.344,38.285,7.143,68.115,7.143,68.115s39.215,1.168,57.559-37.117
					s0.861-84.822,0.861-84.822S550.127,258.496,531.785,296.783z"/>
				<path fill="#DCD2CC" d="M538.928,364.898c0,0,39.215,1.168,57.559-37.117s0.861-84.822,0.861-84.822L538.928,364.898z"/>
			</g>
			<g>
				<path fill="#EEE5E0" d="M489.381,210.912c0.189,42.453,36.133,58.184,36.133,58.184s35.801-16.053,35.609-58.506
					c-0.189-42.453-36.215-76.707-36.215-76.707S489.189,168.459,489.381,210.912z"/>
				<path fill="#DCD2CC" d="M525.514,269.096c0,0,35.801-16.053,35.609-58.506c-0.189-42.453-36.215-76.707-36.215-76.707
					L525.514,269.096z"/>
			</g>
			<g>
				<path fill="#EEE5E0" d="M424.377,177.061c16.553,21.104,40.58,15.014,40.58,15.014s11.633-21.887-4.92-42.988
					c-16.555-21.102-47.803-24.221-47.803-24.221S407.822,155.959,424.377,177.061z"/>
				<path fill="#DCD2CC" d="M464.957,192.074c0,0,11.633-21.887-4.92-42.988c-16.555-21.102-47.803-24.221-47.803-24.221
					L464.957,192.074z"/>
			</g>
			<g>
				<path fill="#EEE5E0" d="M394.275,547.076c80.594-26.137,139.025-103.521,139.025-194.93c0-71.795-36.051-134.936-90.57-171.393
					c0.332-1.521,0.6-3.059,0.805-4.607c61.395,37.066,102.449,104.418,102.449,181.365c0,96.082-64.01,177.197-151.709,203.07
					V547.076z"/>
			</g>
		</g>
	</g>
</g>
</svg>
