<?xml version="1.0" encoding="utf-8"?>
<!-- Generator: Adobe Illustrator 15.0.2, SVG Export Plug-In . SVG Version: 6.00 Build 0)  -->
<!DOCTYPE svg PUBLIC "-//W3C//DTD SVG 1.1//EN" "http://www.w3.org/Graphics/SVG/1.1/DTD/svg11.dtd">
<svg version="1.1" id="레이어_1" xmlns="http://www.w3.org/2000/svg" xmlns:xlink="http://www.w3.org/1999/xlink" x="0px"
	 y="0px" width="700px" height="700px" viewBox="0 0 700 700" enable-background="new 0 0 700 700" xml:space="preserve">
<g>
	<circle fill="#A3D4E1" cx="350.147" cy="349.944" r="329.251"/>
	<circle fill="#2B556D" cx="350.147" cy="349.944" r="304.034"/>
	<g>
		<g>
			<g>
				<path fill="#A3D4E1" d="M335.082,426.784h-7.932c-3.801-1.51-6.604-4.987-7.148-9.178V252.895
					c0.545-4.191,3.348-7.669,7.148-9.18h7.932c6.178,0,11.186-5.007,11.186-11.185s-5.008-11.185-11.186-11.185h-67.266
					c-6.178,0-11.186,5.007-11.186,11.185s5.008,11.185,11.186,11.185h8.34c3.672,1.46,6.412,4.754,7.086,8.753v165.564
					c-0.674,3.998-3.414,7.294-7.086,8.752h-8.34c-6.178,0-11.186,5.009-11.186,11.187c0,6.179,5.008,11.185,11.186,11.185h67.266
					c6.178,0,11.186-5.006,11.186-11.185C346.268,431.793,341.26,426.784,335.082,426.784z"/>
				<path fill="#A3D4E1" d="M432.479,426.784h-7.93c-3.801-1.51-6.605-4.987-7.15-9.178V252.895c0.545-4.191,3.35-7.669,7.15-9.18
					h7.93c6.178,0,11.186-5.007,11.186-11.185s-5.008-11.185-11.186-11.185h-67.264c-6.18,0-11.188,5.007-11.188,11.185
					s5.008,11.185,11.188,11.185h8.338c3.672,1.46,6.412,4.754,7.086,8.753v165.564c-0.674,3.998-3.414,7.294-7.086,8.752h-8.338
					c-6.18,0-11.188,5.009-11.188,11.187c0,6.179,5.008,11.185,11.188,11.185h67.264c6.178,0,11.186-5.006,11.186-11.185
					C443.664,431.793,438.656,426.784,432.479,426.784z"/>
			</g>
		</g>
	</g>
	<g>
		<g>
			<g>
				<path fill="#A3D4E1" d="M212.957,481.325c39.102,16.528,39.773,55.758,39.773,55.758s-28.605,26.853-67.707,10.324
					c-39.104-16.529-56.836-62.97-56.836-62.97S173.854,464.795,212.957,481.325z"/>
				<path fill="#4ABAC6" d="M252.73,537.083c0,0-28.605,26.853-67.707,10.324c-39.104-16.529-56.836-62.97-56.836-62.97
					L252.73,537.083z"/>
			</g>
			<g>
				<path fill="#A3D4E1" d="M160.439,390.17c32.113,27.765,20.674,65.295,20.674,65.295s-35.482,16.741-67.596-11.023
					c-32.115-27.766-34.688-77.409-34.688-77.409S128.324,362.403,160.439,390.17z"/>
				<path fill="#4ABAC6" d="M181.113,455.465c0,0-35.482,16.741-67.596-11.023c-32.115-27.766-34.688-77.409-34.688-77.409
					L181.113,455.465z"/>
			</g>
			<g>
				<path fill="#A3D4E1" d="M168.275,296.784c18.344,38.285-7.143,68.116-7.143,68.116s-39.215,1.167-57.559-37.118
					s-0.861-84.821-0.861-84.821S149.934,258.498,168.275,296.784z"/>
				<path fill="#4ABAC6" d="M161.133,364.9c0,0-39.215,1.167-57.559-37.118s-0.861-84.821-0.861-84.821L161.133,364.9z"/>
			</g>
			<g>
				<path fill="#A3D4E1" d="M210.68,210.914c-0.189,42.452-36.133,58.183-36.133,58.183s-35.801-16.053-35.609-58.505
					c0.189-42.453,36.215-76.707,36.215-76.707S210.871,168.461,210.68,210.914z"/>
				<path fill="#4ABAC6" d="M174.547,269.097c0,0-35.801-16.053-35.609-58.505c0.189-42.453,36.215-76.707,36.215-76.707
					L174.547,269.097z"/>
			</g>
			<g>
				<path fill="#A3D4E1" d="M275.684,177.063c-16.553,21.103-40.58,15.014-40.58,15.014s-11.633-21.887,4.92-42.988
					c16.555-21.103,47.803-24.222,47.803-24.222S292.238,155.961,275.684,177.063z"/>
				<path fill="#4ABAC6" d="M235.104,192.076c0,0-11.633-21.887,4.92-42.988c16.555-21.103,47.803-24.222,47.803-24.222
					L235.104,192.076z"/>
			</g>
			<g>
				<path fill="#A3D4E1" d="M305.785,547.078C225.191,520.94,166.76,443.557,166.76,352.148c0-71.796,36.051-134.936,90.57-171.394
					c-0.332-1.521-0.6-3.058-0.805-4.606c-61.395,37.065-102.449,104.418-102.449,181.365c0,96.081,64.01,177.197,151.709,203.069
					V547.078z"/>
			</g>
		</g>
		<g>
			<g>
				<path fill="#A3D4E1" d="M487.34,481.325c-39.102,16.527-39.773,55.758-39.773,55.758s28.605,26.852,67.707,10.324
					c39.104-16.529,56.836-62.971,56.836-62.971S526.443,464.794,487.34,481.325z"/>
				<path fill="#4ABAC6" d="M447.566,537.083c0,0,28.605,26.852,67.707,10.324c39.104-16.529,56.836-62.971,56.836-62.971
					L447.566,537.083z"/>
			</g>
			<g>
				<path fill="#A3D4E1" d="M539.857,390.169c-32.113,27.766-20.674,65.295-20.674,65.295s35.482,16.742,67.596-11.023
					c32.115-27.766,34.688-77.408,34.688-77.408S571.973,362.403,539.857,390.169z"/>
				<path fill="#4ABAC6" d="M519.184,455.464c0,0,35.482,16.742,67.596-11.023c32.115-27.766,34.688-77.408,34.688-77.408
					L519.184,455.464z"/>
			</g>
			<g>
				<path fill="#A3D4E1" d="M532.021,296.784c-18.344,38.285,7.143,68.115,7.143,68.115s39.215,1.168,57.559-37.117
					s0.861-84.822,0.861-84.822S550.363,258.497,532.021,296.784z"/>
				<path fill="#4ABAC6" d="M539.164,364.899c0,0,39.215,1.168,57.559-37.117s0.861-84.822,0.861-84.822L539.164,364.899z"/>
			</g>
			<g>
				<path fill="#A3D4E1" d="M489.617,210.913c0.189,42.453,36.133,58.184,36.133,58.184s35.801-16.053,35.609-58.506
					c-0.189-42.453-36.215-76.707-36.215-76.707S489.426,168.46,489.617,210.913z"/>
				<path fill="#4ABAC6" d="M525.75,269.097c0,0,35.801-16.053,35.609-58.506c-0.189-42.453-36.215-76.707-36.215-76.707
					L525.75,269.097z"/>
			</g>
			<g>
				<path fill="#A3D4E1" d="M424.613,177.062c16.553,21.104,40.58,15.014,40.58,15.014s11.633-21.887-4.92-42.988
					c-16.555-21.102-47.803-24.221-47.803-24.221S408.059,155.96,424.613,177.062z"/>
				<path fill="#4ABAC6" d="M465.193,192.075c0,0,11.633-21.887-4.92-42.988c-16.555-21.102-47.803-24.221-47.803-24.221
					L465.193,192.075z"/>
			</g>
			<g>
				<path fill="#A3D4E1" d="M394.512,547.077c80.594-26.137,139.025-103.521,139.025-194.93c0-71.795-36.051-134.936-90.57-171.393
					c0.332-1.521,0.6-3.059,0.805-4.607c61.395,37.066,102.449,104.418,102.449,181.365c0,96.082-64.01,177.197-151.709,203.07
					V547.077z"/>
			</g>
		</g>
	</g>
</g>
</svg>
