<?xml version="1.0" encoding="utf-8"?>
<!-- Generator: Adobe Illustrator 15.0.2, SVG Export Plug-In . SVG Version: 6.00 Build 0)  -->
<!DOCTYPE svg PUBLIC "-//W3C//DTD SVG 1.1//EN" "http://www.w3.org/Graphics/SVG/1.1/DTD/svg11.dtd">
<svg version="1.1" id="레이어_1" xmlns="http://www.w3.org/2000/svg" xmlns:xlink="http://www.w3.org/1999/xlink" x="0px"
	 y="0px" width="700px" height="700px" viewBox="0 0 700 700" enable-background="new 0 0 700 700" xml:space="preserve">
<g>
	<circle fill="#F2BB20" cx="350.383" cy="349.944" r="329.252"/>
	<circle fill="#23A7B5" cx="350.383" cy="349.944" r="304.033"/>
	<g>
		<g>
			<g>
				<path fill="#F2BB20" d="M384.016,441.479h-7.93c-3.801-1.511-6.605-4.989-7.15-9.179V267.587c0.545-4.189,3.35-7.667,7.15-9.179
					h7.93c6.178,0,11.186-5.008,11.186-11.184c0-6.178-5.008-11.186-11.186-11.186h-67.264c-6.18,0-11.188,5.008-11.188,11.186
					c0,6.176,5.008,11.184,11.188,11.184h8.338c3.672,1.46,6.412,4.755,7.086,8.753v165.564c-0.674,3.998-3.414,7.294-7.086,8.753
					h-8.338c-6.18,0-11.188,5.008-11.188,11.186c0,6.176,5.008,11.186,11.188,11.186h67.264c6.178,0,11.186-5.01,11.186-11.186
					C395.201,446.486,390.193,441.479,384.016,441.479z"/>
			</g>
		</g>
	</g>
	<g>
		<g>
			<g>
				<path fill="#F2BB20" d="M213.191,488.545c39.102,16.528,39.773,55.758,39.773,55.758s-28.605,26.853-67.707,10.324
					c-39.104-16.529-56.836-62.97-56.836-62.97S174.088,472.015,213.191,488.545z"/>
				<path fill="#F09320" d="M252.965,544.303c0,0-28.605,26.853-67.707,10.324c-39.104-16.529-56.836-62.97-56.836-62.97
					L252.965,544.303z"/>
			</g>
			<g>
				<path fill="#F2BB20" d="M160.674,397.39c32.113,27.765,20.674,65.295,20.674,65.295s-35.482,16.741-67.596-11.023
					c-32.115-27.766-34.688-77.409-34.688-77.409S128.559,369.623,160.674,397.39z"/>
				<path fill="#F09320" d="M181.348,462.685c0,0-35.482,16.741-67.596-11.023c-32.115-27.766-34.688-77.409-34.688-77.409
					L181.348,462.685z"/>
			</g>
			<g>
				<path fill="#F2BB20" d="M168.51,304.004c18.344,38.285-7.143,68.116-7.143,68.116s-39.215,1.167-57.559-37.118
					s-0.861-84.821-0.861-84.821S150.168,265.718,168.51,304.004z"/>
				<path fill="#F09320" d="M161.367,372.12c0,0-39.215,1.167-57.559-37.118s-0.861-84.821-0.861-84.821L161.367,372.12z"/>
			</g>
			<g>
				<path fill="#F2BB20" d="M210.914,218.134c-0.189,42.452-36.133,58.183-36.133,58.183s-35.801-16.053-35.609-58.505
					c0.189-42.453,36.215-76.707,36.215-76.707S211.105,175.681,210.914,218.134z"/>
				<path fill="#F09320" d="M174.781,276.316c0,0-35.801-16.053-35.609-58.505c0.189-42.453,36.215-76.707,36.215-76.707
					L174.781,276.316z"/>
			</g>
			<g>
				<path fill="#F2BB20" d="M275.918,184.282c-16.553,21.103-40.58,15.014-40.58,15.014s-11.633-21.887,4.92-42.988
					c16.555-21.103,47.803-24.222,47.803-24.222S292.473,163.181,275.918,184.282z"/>
				<path fill="#F09320" d="M235.338,199.296c0,0-11.633-21.887,4.92-42.988c16.555-21.103,47.803-24.222,47.803-24.222
					L235.338,199.296z"/>
			</g>
			<g>
				<path fill="#F2BB20" d="M306.02,554.298c-80.594-26.138-139.025-103.521-139.025-194.93c0-71.796,36.051-134.936,90.57-171.394
					c-0.332-1.521-0.6-3.058-0.805-4.606c-61.395,37.065-102.449,104.418-102.449,181.365c0,96.081,64.01,177.197,151.709,203.069
					V554.298z"/>
			</g>
		</g>
		<g>
			<g>
				<path fill="#F2BB20" d="M487.574,488.545c-39.102,16.527-39.773,55.758-39.773,55.758s28.605,26.852,67.707,10.324
					c39.104-16.529,56.836-62.971,56.836-62.971S526.678,472.014,487.574,488.545z"/>
				<path fill="#F09320" d="M447.801,544.303c0,0,28.605,26.852,67.707,10.324c39.104-16.529,56.836-62.971,56.836-62.971
					L447.801,544.303z"/>
			</g>
			<g>
				<path fill="#F2BB20" d="M540.092,397.389c-32.113,27.766-20.674,65.295-20.674,65.295s35.482,16.742,67.596-11.023
					c32.115-27.766,34.688-77.408,34.688-77.408S572.207,369.623,540.092,397.389z"/>
				<path fill="#F09320" d="M519.418,462.684c0,0,35.482,16.742,67.596-11.023c32.115-27.766,34.688-77.408,34.688-77.408
					L519.418,462.684z"/>
			</g>
			<g>
				<path fill="#F2BB20" d="M532.256,304.004c-18.344,38.285,7.143,68.115,7.143,68.115s39.215,1.168,57.559-37.117
					s0.861-84.822,0.861-84.822S550.598,265.717,532.256,304.004z"/>
				<path fill="#F09320" d="M539.398,372.119c0,0,39.215,1.168,57.559-37.117s0.861-84.822,0.861-84.822L539.398,372.119z"/>
			</g>
			<g>
				<path fill="#F2BB20" d="M489.852,218.133c0.189,42.453,36.133,58.184,36.133,58.184s35.801-16.053,35.609-58.506
					c-0.189-42.453-36.215-76.707-36.215-76.707S489.66,175.68,489.852,218.133z"/>
				<path fill="#F09320" d="M525.984,276.316c0,0,35.801-16.053,35.609-58.506c-0.189-42.453-36.215-76.707-36.215-76.707
					L525.984,276.316z"/>
			</g>
			<g>
				<path fill="#F2BB20" d="M424.848,184.281c16.553,21.104,40.58,15.014,40.58,15.014s11.633-21.887-4.92-42.988
					c-16.555-21.102-47.803-24.221-47.803-24.221S408.293,163.18,424.848,184.281z"/>
				<path fill="#F09320" d="M465.428,199.295c0,0,11.633-21.887-4.92-42.988c-16.555-21.102-47.803-24.221-47.803-24.221
					L465.428,199.295z"/>
			</g>
			<g>
				<path fill="#F2BB20" d="M394.746,554.297c80.594-26.137,139.025-103.521,139.025-194.93c0-71.795-36.051-134.936-90.57-171.393
					c0.332-1.521,0.6-3.059,0.805-4.607c61.395,37.066,102.449,104.418,102.449,181.365c0,96.082-64.01,177.197-151.709,203.07
					V554.297z"/>
			</g>
		</g>
	</g>
</g>
</svg>
