<?xml version="1.0" encoding="utf-8"?>
<!-- Generator: Adobe Illustrator 15.0.2, SVG Export Plug-In . SVG Version: 6.00 Build 0)  -->
<!DOCTYPE svg PUBLIC "-//W3C//DTD SVG 1.1//EN" "http://www.w3.org/Graphics/SVG/1.1/DTD/svg11.dtd">
<svg version="1.1" id="레이어_1" xmlns="http://www.w3.org/2000/svg" xmlns:xlink="http://www.w3.org/1999/xlink" x="0px"
	 y="0px" width="700px" height="700px" viewBox="0 0 700 700" enable-background="new 0 0 700 700" xml:space="preserve">
<g>
	<circle fill="#F2BB20" cx="350.088" cy="350.093" r="329.251"/>
	<g>
		<circle fill="#23A7B5" cx="350.088" cy="350.093" r="304.033"/>
		<g>
			<g>
				<path fill="#F09320" d="M245.575,372.094c-6.942,0-68.65-0.861-98.383-30.597c-29.734-29.736-30.593-91.437-30.593-98.384
					c0-7.366,5.97-13.342,13.343-13.342h62.263c7.37,0,13.345,5.976,13.345,13.342c0,7.37-5.975,13.342-13.345,13.342h-48.262
					c1.752,20.27,7.428,51.48,22.115,66.178c18.606,18.601,63.715,22.751,79.53,22.775c7.361,0.014,13.327,5.985,13.324,13.352
					C258.903,366.122,252.94,372.094,245.575,372.094z"/>
				<path fill="#F09320" d="M454.601,372.094c6.94,0,68.65-0.861,98.386-30.597c29.731-29.736,30.59-91.437,30.59-98.384
					c0-7.366-5.972-13.342-13.342-13.342h-62.264c-7.369,0-13.34,5.976-13.34,13.342c0,7.37,5.971,13.342,13.34,13.342h48.26
					c-1.75,20.27-7.424,51.48-22.115,66.178c-18.605,18.601-63.715,22.751-79.524,22.775c-7.364,0.014-13.333,5.985-13.327,13.352
					C441.273,366.122,447.234,372.094,454.601,372.094z"/>
				<path fill="#F09320" d="M450.156,567.779c0,14.74-43.811,26.684-97.847,26.684c-54.034,0-97.841-11.943-97.841-26.684
					c0-14.735,43.807-26.689,97.841-26.689C406.346,541.09,450.156,553.044,450.156,567.779z"/>
				<path fill="#F09320" d="M378.996,464.597c8.632-36.237-8.896-74.718-8.896-74.718H352.31h-17.789c0,0-17.522,38.48-8.893,74.718
					c8.893,37.358-8.895,84.062-44.474,102.739l71.156,9.337l71.157-9.337C387.891,548.658,370.101,501.955,378.996,464.597z"/>
				<path fill="#F2BB20" d="M432.06,552.422c0.138,0.604,0.308,1.195,0.308,1.794c0,14.743-39.83,26.69-88.949,26.69
					c-34.571,0-64.459-5.924-79.185-14.563c5.794,11.862,42.969,21.029,88.076,21.029c49.124,0,88.948-10.861,88.948-24.254
					C441.258,559.279,437.895,555.65,432.06,552.422z"/>
				<path fill="#F2BB20" d="M174.416,188.267c0,0,23.716,292.547,177.894,292.547c138.368,0,177.9-292.547,177.9-292.547H174.416z"
					/>
				<g>
					<path fill="#F6C650" d="M491.119,289.569c15.388-52.04,21.3-95.737,21.3-95.737H452.63
						c-1.889,19.895-7.04,63.264-19.075,109.373C455.215,299.333,474.783,294.67,491.119,289.569z"/>
					<path fill="#F6C650" d="M422.052,341.14c-19.056,54.633-49.158,105.178-96.424,117.038c7.686,1.846,15.76,2.859,24.297,2.859
						c62.417,0,102.789-65.176,127.691-131.149C461.111,334.176,442.35,338.017,422.052,341.14z"/>
				</g>
				<path fill="#F09320" d="M530.21,188.267c0,26.196-79.651,47.441-177.9,47.441c-98.245,0-177.894-21.245-177.894-47.441
					c0-26.197,79.648-47.445,177.894-47.445C450.559,140.822,530.21,162.07,530.21,188.267z"/>
				<path fill="#E88418" d="M512.419,185.3c0,19.646-71.685,35.583-160.109,35.583c-88.423,0-160.105-15.937-160.105-35.583
					c0-19.642,71.683-35.582,160.105-35.582C440.734,149.718,512.419,165.658,512.419,185.3z"/>
				<polygon fill="#F09320" points="358.583,257.124 375.346,292.942 414.575,297.813 385.689,324.808 393.184,363.631 
					358.583,344.505 323.981,363.631 331.47,324.808 302.592,297.813 341.822,292.942 				"/>
			</g>
		</g>
	</g>
</g>
</svg>
