<?xml version="1.0" encoding="utf-8"?>
<!-- Generator: Adobe Illustrator 15.0.2, SVG Export Plug-In . SVG Version: 6.00 Build 0)  -->
<!DOCTYPE svg PUBLIC "-//W3C//DTD SVG 1.1//EN" "http://www.w3.org/Graphics/SVG/1.1/DTD/svg11.dtd">
<svg version="1.1" id="레이어_1" xmlns="http://www.w3.org/2000/svg" xmlns:xlink="http://www.w3.org/1999/xlink" x="0px"
	 y="0px" width="700px" height="700px" viewBox="0 0 700 700" enable-background="new 0 0 700 700" xml:space="preserve">
<g>
	<circle fill="#C4E6F0" cx="350.853" cy="349.906" r="329.251"/>
	<circle fill="#648E33" cx="350.853" cy="349.906" r="304.034"/>
	<g>
		<g>
			<g>
				<path fill-rule="evenodd" clip-rule="evenodd" fill="#A3D4E1" d="M350.853,223.291c-14.51,0-26.272,11.764-26.272,26.273
					s11.763,26.273,26.272,26.273c14.51,0,26.272-11.764,26.272-26.273S365.363,223.291,350.853,223.291z M350.853,266.631
					c-9.426,0-17.067-7.641-17.067-17.066s7.642-17.066,17.067-17.066c9.426,0,17.067,7.641,17.067,17.066
					S360.279,266.631,350.853,266.631z"/>
			</g>
			<g>
				<polygon fill-rule="evenodd" clip-rule="evenodd" fill="#C4E6F0" points="350.852,263.934 408.832,367.959 523.086,388.424 
					442.938,475.395 456.578,591.357 350.852,541.902 245.125,591.357 258.767,473.689 178.62,388.424 294.578,366.254 				"/>
				<polygon fill-rule="evenodd" clip-rule="evenodd" fill="#A3D4E1" points="350.852,263.934 408.832,367.959 523.086,388.424 
					442.938,475.395 456.578,591.357 350.852,541.902 				"/>
			</g>
		</g>
		<polygon fill-rule="evenodd" clip-rule="evenodd" fill="#7B6A58" points="491.023,109.174 210.682,109.174 210.682,199.146 
			210.692,199.146 210.682,199.152 350.852,259.514 491.021,199.152 491.014,199.146 491.023,199.146 		"/>
		<polygon fill-rule="evenodd" clip-rule="evenodd" fill="#A3897B" points="491.023,109.174 210.682,109.174 210.682,199.146 
			210.692,199.146 210.682,199.152 350.852,259.514 491.021,199.152 491.014,199.146 491.023,199.146 		"/>
		<polygon fill-rule="evenodd" clip-rule="evenodd" fill="#2B556D" points="491.023,109.174 210.682,109.174 210.682,199.146 
			210.692,199.146 210.682,199.152 350.852,259.514 491.021,199.152 491.014,199.146 491.023,199.146 		"/>
		<g>
			<polygon fill-rule="evenodd" clip-rule="evenodd" fill="#234C5E" points="266.338,223.119 266.338,109.174 210.682,109.174 
				210.682,199.146 210.692,199.146 210.682,199.152 			"/>
			<polygon fill-rule="evenodd" clip-rule="evenodd" fill="#234C5E" points="323.024,247.531 350.852,259.514 378.68,247.531 
				378.68,109.174 323.024,109.174 			"/>
			<polygon fill-rule="evenodd" clip-rule="evenodd" fill="#234C5E" points="435.367,223.119 491.021,199.152 491.014,199.146 
				491.023,199.146 491.023,109.174 435.367,109.174 			"/>
		</g>
	</g>
</g>
</svg>
