<?xml version="1.0" encoding="utf-8"?>
<!-- Generator: Adobe Illustrator 15.0.2, SVG Export Plug-In . SVG Version: 6.00 Build 0)  -->
<!DOCTYPE svg PUBLIC "-//W3C//DTD SVG 1.1//EN" "http://www.w3.org/Graphics/SVG/1.1/DTD/svg11.dtd">
<svg version="1.1" id="레이어_1" xmlns="http://www.w3.org/2000/svg" xmlns:xlink="http://www.w3.org/1999/xlink" x="0px"
	 y="0px" width="700px" height="700px" viewBox="0 0 700 700" enable-background="new 0 0 700 700" xml:space="preserve">
<g>
	<circle fill="#F2BB20" cx="350.088" cy="349.906" r="329.252"/>
	<circle fill="#EB601E" cx="350.088" cy="349.906" r="304.033"/>
	<g>
		<g>
			<g>
				<path fill-rule="evenodd" clip-rule="evenodd" fill="#F09320" d="M350.088,223.291c-14.51,0-26.272,11.764-26.272,26.273
					s11.763,26.273,26.272,26.273s26.272-11.764,26.272-26.273S364.598,223.291,350.088,223.291z M350.088,266.631
					c-9.426,0-17.067-7.641-17.067-17.066s7.642-17.066,17.067-17.066s17.067,7.641,17.067,17.066S359.514,266.631,350.088,266.631z
					"/>
			</g>
			<g>
				<polygon fill-rule="evenodd" clip-rule="evenodd" fill="#F2BB20" points="350.087,263.934 408.067,367.959 522.32,388.424 
					442.172,475.395 455.814,591.357 350.087,541.902 244.36,591.357 258.002,473.689 177.855,388.424 293.813,366.254 				"/>
				<polygon fill-rule="evenodd" clip-rule="evenodd" fill="#F09320" points="350.087,263.934 408.067,367.959 522.32,388.424 
					442.172,475.395 455.814,591.357 350.087,541.902 				"/>
			</g>
		</g>
		<polygon fill-rule="evenodd" clip-rule="evenodd" fill="#7B6A58" points="490.258,109.174 209.917,109.174 209.917,199.146 
			209.927,199.146 209.917,199.152 350.087,259.514 490.257,199.152 490.248,199.146 490.258,199.146 		"/>
		<polygon fill-rule="evenodd" clip-rule="evenodd" fill="#A3897B" points="490.258,109.174 209.917,109.174 209.917,199.146 
			209.927,199.146 209.917,199.152 350.087,259.514 490.257,199.152 490.248,199.146 490.258,199.146 		"/>
		<polygon fill-rule="evenodd" clip-rule="evenodd" fill="#23A7B5" points="490.258,109.174 209.917,109.174 209.917,199.146 
			209.927,199.146 209.917,199.152 350.087,259.514 490.257,199.152 490.248,199.146 490.258,199.146 		"/>
		<g>
			<polygon fill-rule="evenodd" clip-rule="evenodd" fill="#1D8FAB" points="265.574,223.119 265.574,109.174 209.917,109.174 
				209.917,199.146 209.927,199.146 209.917,199.152 			"/>
			<polygon fill-rule="evenodd" clip-rule="evenodd" fill="#1D8FAB" points="322.259,247.531 350.087,259.514 377.915,247.531 
				377.915,109.174 322.259,109.174 			"/>
			<polygon fill-rule="evenodd" clip-rule="evenodd" fill="#1D8FAB" points="434.602,223.119 490.257,199.152 490.248,199.146 
				490.258,199.146 490.258,109.174 434.602,109.174 			"/>
		</g>
	</g>
</g>
</svg>
