<?xml version="1.0" encoding="utf-8"?>
<!-- Generator: Adobe Illustrator 15.0.2, SVG Export Plug-In . SVG Version: 6.00 Build 0)  -->
<!DOCTYPE svg PUBLIC "-//W3C//DTD SVG 1.1//EN" "http://www.w3.org/Graphics/SVG/1.1/DTD/svg11.dtd">
<svg version="1.1" id="레이어_1" xmlns="http://www.w3.org/2000/svg" xmlns:xlink="http://www.w3.org/1999/xlink" x="0px"
	 y="0px" width="700px" height="700px" viewBox="0 0 700 700" enable-background="new 0 0 700 700" xml:space="preserve">
<g>
	<circle fill="#DCD2CC" cx="349.913" cy="350.056" r="329.251"/>
	<circle fill="#23A7B5" cx="349.912" cy="350.057" r="304.033"/>
	<g>
		<g>
			<path fill="#EEE5E0" d="M439.066,322.438l-85.023-106.283l-85.021,106.283l-125.695-73.94l57.846,227.844
				c0,22.464,60.99,40.668,152.871,40.668c91.885,0,152.873-18.204,152.873-40.668l57.844-227.844L439.066,322.438z"/>
			<path fill="#DCD2CC" d="M325.121,497.112c-56.438-10.266-112.869-135.201-147.545-228.467l-34.25-20.147l57.846,227.844
				c0,22.464,60.99,40.668,152.871,40.668c52.455,0,94.781-5.954,121.5-15.219C427.254,503.881,365.551,504.463,325.121,497.112z"/>
			<path fill="#F7F7F5" d="M439.066,322.438l-85.023-106.283l-85.021,106.283l-125.695-73.94l121.637,99.872l93.215-99.161
				l74.369,99.161l99.16-61.923l-48.658,212.505c15.377-6.464,23.867-14.234,23.867-22.61l57.844-227.844L439.066,322.438z"/>
			<g>
				<path fill="#EEE5E0" d="M192.908,253.34c0,20.539-16.65,37.185-37.184,37.185c-20.541,0-37.188-16.646-37.188-37.185
					c0-20.538,16.646-37.185,37.188-37.185C176.258,216.156,192.908,232.803,192.908,253.34z"/>
				<path fill="#F7F7F5" d="M147.459,237.642c15.895,0,29.367,10.031,34.686,24.071c1.58-3.575,2.5-7.513,2.5-11.677
					c0-15.974-12.949-28.921-28.92-28.921c-13.703,0-25.129,9.563-28.107,22.365C133.369,239.828,140.141,237.642,147.459,237.642z"
					/>
				<path fill="#DCD2CC" d="M155.725,273.999c-17.689,0-32.426-12.374-36.193-28.922c-0.605,2.668-0.994,5.416-0.994,8.263
					c0,20.539,16.646,37.185,37.188,37.185c20.533,0,37.184-16.646,37.184-37.185c0-2.847-0.389-5.595-0.994-8.263
					C188.145,261.625,173.41,273.999,155.725,273.999z"/>
			</g>
			<g>
				<circle fill="#EEE5E0" cx="354.044" cy="220.288" r="37.185"/>
				<path fill="#F7F7F5" d="M345.781,204.589c15.898,0,29.363,10.029,34.682,24.072c1.584-3.576,2.504-7.514,2.504-11.678
					c0-15.974-12.955-28.921-28.924-28.921c-13.699,0-25.131,9.562-28.107,22.365C331.693,206.773,338.459,204.589,345.781,204.589z
					"/>
				<path fill="#DCD2CC" d="M354.043,240.945c-17.686,0-32.422-12.374-36.193-28.921c-0.604,2.667-0.99,5.414-0.99,8.264
					c0,20.536,16.646,37.185,37.184,37.185c20.539,0,37.186-16.648,37.186-37.185c0-2.85-0.389-5.597-0.99-8.264
					C386.469,228.572,371.732,240.945,354.043,240.945z"/>
			</g>
			<g>
				<circle fill="#EEE5E0" cx="544.102" cy="253.34" r="37.186"/>
				<path fill="#F7F7F5" d="M535.838,237.642c15.898,0,29.367,10.031,34.686,24.071c1.582-3.575,2.502-7.513,2.502-11.677
					c0-15.974-12.953-28.921-28.924-28.921c-13.701,0-25.129,9.563-28.107,22.365C521.75,239.828,528.518,237.642,535.838,237.642z"
					/>
				<path fill="#DCD2CC" d="M544.102,273.999c-17.684,0-32.424-12.374-36.191-28.922c-0.604,2.668-0.994,5.416-0.994,8.263
					c0,20.539,16.648,37.185,37.186,37.185s37.186-16.646,37.186-37.185c0-2.847-0.387-5.595-0.992-8.263
					C576.527,261.625,561.791,273.999,544.102,273.999z"/>
			</g>
			<path fill="#F7F7F5" d="M506.045,414.89c-24.951,16.51-87.943,30.559-162.275,34.442c-62.488,3.268-117.688-1.471-149.385-11.275
				c19.721,15.865,82.609,27.485,157.207,27.485c90.389,0,163.654-17.042,163.654-38.071
				C515.246,423.063,511.986,418.836,506.045,414.89z"/>
			<path fill="#F7F7F5" d="M192.826,443.473l4.924,19.383c30.061,15.477,88.777,25.993,156.293,25.993
				c67.521,0,126.238-10.517,156.297-25.993l4.922-19.383c-28.09,17.019-89.648,28.85-161.219,28.85
				C282.475,472.322,220.918,460.491,192.826,443.473z"/>
			<path fill="#DCD2CC" d="M190.293,433.482l4.996,19.681c29.172,16.245,89.219,27.421,158.754,27.421
				c69.539,0,129.586-11.176,158.754-27.421l4.998-19.681c-26.703,17.938-89.807,30.574-163.752,30.574
				C280.1,464.057,216.994,451.42,190.293,433.482z"/>
		</g>
	</g>
</g>
</svg>
