<?xml version="1.0" encoding="utf-8"?>
<!-- Generator: Adobe Illustrator 15.0.2, SVG Export Plug-In . SVG Version: 6.00 Build 0)  -->
<!DOCTYPE svg PUBLIC "-//W3C//DTD SVG 1.1//EN" "http://www.w3.org/Graphics/SVG/1.1/DTD/svg11.dtd">
<svg version="1.1" id="레이어_1" xmlns="http://www.w3.org/2000/svg" xmlns:xlink="http://www.w3.org/1999/xlink" x="0px"
	 y="0px" width="700px" height="700px" viewBox="0 0 700 700" enable-background="new 0 0 700 700" xml:space="preserve">
<g>
	<circle fill="#C4E6F0" cx="350.147" cy="350.056" r="329.251"/>
	<circle fill="#648E33" cx="350.148" cy="350.057" r="304.033"/>
	<g>
		<g>
			<path fill="#C4E6F0" d="M439.301,322.438l-85.021-106.283l-85.023,106.283l-125.693-73.94l57.844,227.844
				c0,22.464,60.992,40.668,152.873,40.668c91.883,0,152.873-18.204,152.873-40.668l57.842-227.844L439.301,322.438z"/>
			<path fill="#A3D4E1" d="M325.357,497.112c-56.438-10.266-112.871-135.201-147.547-228.467l-34.248-20.147l57.844,227.844
				c0,22.464,60.992,40.668,152.873,40.668c52.455,0,94.779-5.954,121.5-15.219C427.488,503.881,365.787,504.463,325.357,497.112z"
				/>
			<path fill="#DDEEF0" d="M439.301,322.438l-85.021-106.283l-85.023,106.283l-125.693-73.94l121.635,99.872l93.215-99.161
				l74.371,99.161l99.16-61.923l-48.658,212.505c15.377-6.464,23.867-14.234,23.867-22.61l57.842-227.844L439.301,322.438z"/>
			<g>
				<circle fill="#A3D4E1" cx="155.959" cy="253.34" r="37.186"/>
				<path fill="#C4E6F0" d="M147.695,237.642c15.895,0,29.365,10.031,34.684,24.071c1.582-3.575,2.502-7.513,2.502-11.677
					c0-15.974-12.951-28.921-28.922-28.921c-13.701,0-25.129,9.563-28.107,22.365C133.604,239.828,140.377,237.642,147.695,237.642z
					"/>
				<path fill="#6DC6D6" d="M155.959,273.999c-17.689,0-32.424-12.374-36.191-28.922c-0.605,2.668-0.994,5.416-0.994,8.263
					c0,20.539,16.646,37.185,37.186,37.185c20.535,0,37.186-16.646,37.186-37.185c0-2.847-0.389-5.595-0.994-8.263
					C188.383,261.625,173.646,273.999,155.959,273.999z"/>
			</g>
			<g>
				<circle fill="#A3D4E1" cx="354.28" cy="220.288" r="37.185"/>
				<path fill="#C4E6F0" d="M346.018,204.589c15.896,0,29.363,10.029,34.68,24.072c1.584-3.576,2.504-7.514,2.504-11.678
					c0-15.974-12.953-28.921-28.922-28.921c-13.701,0-25.131,9.562-28.107,22.365C331.928,206.773,338.695,204.589,346.018,204.589z
					"/>
				<path fill="#6DC6D6" d="M354.279,240.945c-17.688,0-32.422-12.374-36.195-28.921c-0.602,2.667-0.988,5.414-0.988,8.264
					c0,20.536,16.646,37.185,37.184,37.185c20.539,0,37.186-16.648,37.186-37.185c0-2.85-0.389-5.597-0.992-8.264
					C386.703,228.572,371.969,240.945,354.279,240.945z"/>
			</g>
			<g>
				<circle fill="#A3D4E1" cx="544.338" cy="253.34" r="37.186"/>
				<path fill="#C4E6F0" d="M536.074,237.642c15.896,0,29.365,10.031,34.684,24.071c1.584-3.575,2.504-7.513,2.504-11.677
					c0-15.974-12.953-28.921-28.926-28.921c-13.699,0-25.127,9.563-28.105,22.365C521.986,239.828,528.754,237.642,536.074,237.642z
					"/>
				<path fill="#6DC6D6" d="M544.336,273.999c-17.684,0-32.422-12.374-36.191-28.922c-0.604,2.668-0.992,5.416-0.992,8.263
					c0,20.539,16.648,37.185,37.184,37.185c20.539,0,37.188-16.646,37.188-37.185c0-2.847-0.387-5.595-0.994-8.263
					C576.764,261.625,562.025,273.999,544.336,273.999z"/>
			</g>
			<path fill="#DDEEF0" d="M506.279,414.89c-24.949,16.51-87.943,30.559-162.273,34.442c-62.49,3.268-117.689-1.471-149.385-11.275
				c19.721,15.865,82.609,27.485,157.207,27.485c90.387,0,163.654-17.042,163.654-38.071
				C515.482,423.063,512.221,418.836,506.279,414.89z"/>
			<path fill="#DDEEF0" d="M193.061,443.473l4.926,19.383c30.059,15.477,88.775,25.993,156.293,25.993
				c67.521,0,126.238-10.517,156.295-25.993l4.922-19.383c-28.09,17.019-89.648,28.85-161.217,28.85
				S221.154,460.491,193.061,443.473z"/>
			<path fill="#6DC6D6" d="M190.529,433.482l4.996,19.681c29.172,16.245,89.217,27.421,158.754,27.421
				s129.584-11.176,158.754-27.421l4.998-19.681c-26.705,17.938-89.809,30.574-163.752,30.574
				C280.334,464.057,217.23,451.42,190.529,433.482z"/>
		</g>
	</g>
</g>
</svg>
