<?xml version="1.0" encoding="utf-8"?>
<!-- Generator: Adobe Illustrator 15.0.2, SVG Export Plug-In . SVG Version: 6.00 Build 0)  -->
<!DOCTYPE svg PUBLIC "-//W3C//DTD SVG 1.1//EN" "http://www.w3.org/Graphics/SVG/1.1/DTD/svg11.dtd">
<svg version="1.1" id="레이어_1" xmlns="http://www.w3.org/2000/svg" xmlns:xlink="http://www.w3.org/1999/xlink" x="0px"
	 y="0px" width="700px" height="700px" viewBox="0 0 700 700" enable-background="new 0 0 700 700" xml:space="preserve">
<path fill="#F2BB20" d="M350.383,20.806c181.842,0,329.252,147.411,329.252,329.25c0,181.841-147.41,329.251-329.252,329.251
	c-181.84,0-329.25-147.41-329.25-329.251C21.133,168.216,168.543,20.806,350.383,20.806"/>
<circle fill="#EB601E" cx="350.383" cy="350.057" r="304.033"/>
<g>
	<g>
		<path fill="#F2BB20" d="M440.402,322.438l-85.021-106.283l-85.021,106.283l-125.695-73.94l57.844,227.844
			c0,22.464,60.992,40.668,152.873,40.668c91.883,0,152.873-18.204,152.873-40.668l57.842-227.844L440.402,322.438z"/>
		<path fill="#F09320" d="M326.459,497.112c-56.438-10.266-112.869-135.201-147.547-228.467l-34.248-20.147l57.844,227.844
			c0,22.464,60.992,40.668,152.873,40.668c52.453,0,94.779-5.954,121.5-15.219C428.592,503.881,366.889,504.463,326.459,497.112z"/>
		<path fill="#F6C650" d="M440.402,322.438l-85.021-106.283l-85.021,106.283l-125.695-73.94l121.637,99.872l93.213-99.161
			l74.369,99.161l99.162-61.923l-48.658,212.505c15.377-6.464,23.867-14.234,23.867-22.61l57.842-227.844L440.402,322.438z"/>
		<g>
			<circle fill="#F2BB20" cx="157.061" cy="253.34" r="37.186"/>
			<path fill="#F6C650" d="M148.799,237.642c15.893,0,29.365,10.031,34.682,24.071c1.582-3.575,2.502-7.513,2.502-11.677
				c0-15.974-12.951-28.921-28.922-28.921c-13.701,0-25.129,9.563-28.107,22.365C134.707,239.828,141.477,237.642,148.799,237.642z"
				/>
			<path fill="#F09320" d="M157.061,273.999c-17.689,0-32.426-12.374-36.191-28.922c-0.605,2.668-0.994,5.416-0.994,8.263
				c0,20.539,16.646,37.185,37.186,37.185c20.535,0,37.186-16.646,37.186-37.185c0-2.847-0.389-5.595-0.994-8.263
				C189.482,261.625,174.748,273.999,157.061,273.999z"/>
		</g>
		<g>
			<circle fill="#F2BB20" cx="355.382" cy="220.288" r="37.185"/>
			<path fill="#F6C650" d="M347.119,204.589c15.896,0,29.363,10.029,34.68,24.072c1.586-3.576,2.506-7.514,2.506-11.678
				c0-15.974-12.955-28.921-28.924-28.921c-13.701,0-25.131,9.562-28.107,22.365C333.029,206.773,339.797,204.589,347.119,204.589z"
				/>
			<path fill="#F09320" d="M355.381,240.945c-17.688,0-32.422-12.374-36.193-28.921c-0.604,2.667-0.99,5.414-0.99,8.264
				c0,20.536,16.646,37.185,37.184,37.185c20.539,0,37.186-16.648,37.186-37.185c0-2.85-0.389-5.597-0.992-8.264
				C387.807,228.572,373.07,240.945,355.381,240.945z"/>
		</g>
		<g>
			<circle fill="#F2BB20" cx="545.439" cy="253.34" r="37.186"/>
			<path fill="#F6C650" d="M537.174,237.642c15.898,0,29.367,10.031,34.686,24.071c1.584-3.575,2.504-7.513,2.504-11.677
				c0-15.974-12.953-28.921-28.924-28.921c-13.701,0-25.129,9.563-28.107,22.365C523.088,239.828,529.855,237.642,537.174,237.642z"
				/>
			<path fill="#F09320" d="M545.439,273.999c-17.686,0-32.424-12.374-36.191-28.922c-0.605,2.668-0.994,5.416-0.994,8.263
				c0,20.539,16.648,37.185,37.186,37.185s37.186-16.646,37.186-37.185c0-2.847-0.387-5.595-0.994-8.263
				C577.863,261.625,563.129,273.999,545.439,273.999z"/>
		</g>
		<path fill="#F6C650" d="M507.383,414.89c-24.953,16.51-87.943,30.559-162.275,34.442c-62.49,3.268-117.689-1.471-149.385-11.275
			c19.721,15.865,82.609,27.485,157.207,27.485c90.387,0,163.654-17.042,163.654-38.071
			C516.584,423.063,513.324,418.836,507.383,414.89z"/>
		<path fill="#F6C650" d="M194.162,443.473l4.926,19.383c30.059,15.477,88.775,25.993,156.293,25.993
			c67.521,0,126.238-10.517,156.295-25.993l4.922-19.383c-28.09,17.019-89.646,28.85-161.217,28.85
			C283.813,472.322,222.256,460.491,194.162,443.473z"/>
		<path fill="#F09320" d="M191.631,433.482l4.996,19.681c29.17,16.245,89.217,27.421,158.754,27.421s129.584-11.176,158.756-27.421
			l4.996-19.681c-26.705,17.938-89.809,30.574-163.752,30.574C281.436,464.057,218.332,451.42,191.631,433.482z"/>
	</g>
</g>
</svg>
