<?xml version="1.0" encoding="utf-8"?>
<!-- Generator: Adobe Illustrator 15.0.2, SVG Export Plug-In . SVG Version: 6.00 Build 0)  -->
<!DOCTYPE svg PUBLIC "-//W3C//DTD SVG 1.1//EN" "http://www.w3.org/Graphics/SVG/1.1/DTD/svg11.dtd">
<svg version="1.1" id="레이어_1" xmlns="http://www.w3.org/2000/svg" xmlns:xlink="http://www.w3.org/1999/xlink" x="0px"
	 y="0px" width="700px" height="700px" viewBox="0 0 700 700" enable-background="new 0 0 700 700" xml:space="preserve">
<g>
	<g>
		<circle fill="#DCD2CC" cx="350.618" cy="349.981" r="329.251"/>
		<circle fill="#23A7B5" cx="350.617" cy="347.499" r="304.033"/>
		<g>
			<polygon fill="#DCD2CC" points="548.474,382.363 199.012,382.363 199.012,182.675 548.474,182.675 448.627,282.518 			"/>
			<polygon fill="#DCD2CC" points="548.474,382.363 199.012,382.363 199.012,182.675 548.474,182.675 448.627,282.518 			"/>
			<polygon fill="#EEE5E0" points="482.248,248.898 548.474,182.675 215.9,182.675 215.9,248.898 			"/>
			<polygon fill="#EEE5E0" points="215.9,316.142 215.9,382.363 548.474,382.363 482.252,316.142 			"/>
			<rect x="199.012" y="182.675" fill="#DCD2CC" width="56.336" height="199.688"/>
			<path fill="#597C34" d="M174.054,595.029c15.604,11.15,32.311,20.854,49.918,28.934V182.675h-49.918V595.029z"/>
			<path fill="#4F6A30" d="M174.054,595.029c5.87,4.194,11.897,8.183,18.068,11.96V182.675h-18.068V595.029z"/>
		</g>
	</g>
	<g>
		<g>
			<g>
				<g>
					<polygon fill="#FFFFFF" points="280.995,248.95 290.029,268.253 311.171,270.88 295.604,285.427 299.643,306.349 
						280.995,296.042 262.347,306.349 266.384,285.427 250.819,270.88 271.962,268.253 					"/>
					<polygon fill="#FFFFFF" points="344.093,248.95 353.127,268.253 374.27,270.88 358.702,285.427 362.74,306.349 
						344.093,296.042 325.446,306.349 329.481,285.427 313.918,270.88 335.061,268.253 					"/>
					<polygon fill="#FFFFFF" points="407.191,248.95 416.226,268.253 437.368,270.88 421.801,285.427 425.839,306.349 
						407.191,296.042 388.544,306.349 392.58,285.427 377.017,270.88 398.16,268.253 					"/>
				</g>
			</g>
		</g>
	</g>
</g>
</svg>
